<?xml version="1.0" standalone="no"?>
<!DOCTYPE svg PUBLIC "-//W3C//DTD SVG 20010904//EN"
 "http://www.w3.org/TR/2001/REC-SVG-20010904/DTD/svg10.dtd">
<svg version="1.0" xmlns="http://www.w3.org/2000/svg"
 width="600.000000pt" height="600.000000pt" viewBox="0 0 600.000000 600.000000"
 preserveAspectRatio="xMidYMid meet">
<metadata>
Created by potrace 1.11, written by Peter Selinger 2001-2013
</metadata>
<g transform="translate(0.000000,600.000000) scale(0.100000,-0.100000)"
fill="#000000" stroke="none">
<path d="M10 2995 l0 -2995 2995 0 2995 0 0 2995 0 2995 -2995 0 -2995 0 0
-2995z m2070 991 c187 -49 342 -168 413 -316 94 -199 92 -498 -5 -684 -47 -88
-155 -193 -248 -239 -150 -74 -187 -79 -617 -84 l-383 -5 0 -419 0 -419 -195
0 -195 0 0 1096 0 1095 583 -4 c512 -3 590 -5 647 -21z m1425 -168 c112 -322
517 -1471 527 -1498 7 -20 11 -22 17 -10 4 8 138 394 297 858 l288 842 268 0
268 0 0 -1095 0 -1095 -185 0 -185 0 -1 843 c0 585 -3 834 -11 817 -5 -14 -74
-205 -153 -425 -79 -220 -211 -587 -293 -815 l-149 -415 -160 -3 -160 -2 -110
307 c-61 170 -198 551 -304 848 l-194 540 -3 -847 -2 -848 -185 0 -185 0 0
1095 0 1095 274 0 273 0 68 -192z"/>
<path d="M1240 3336 l0 -367 268 1 c147 1 299 5 338 10 149 19 249 81 301 188
26 53 28 66 28 177 0 113 -2 124 -30 178 -36 73 -86 118 -161 148 -57 22 -71
23 -401 27 l-343 4 0 -366z"/>
</g>
</svg>
